# xmcd
#
# Track frame offsets:
#	183
#	24583
#	45683
#	68958
#
# Disc length: 1295 seconds
#
# Revision: 3
# Processed by: cddbd v1.5.2PL0 Copyright (c) Steve Scherf et al.
# Submitted via: audiograbber 1.83.01
#
DISCID=30050d04
DTITLE=TRUCK STOP - 1000 MEILEN STAUB [DISC 02]
DYEAR=1993
DGENRE=COUNTRY
TTITLE0=ARIZONA-HIT-MEDLEY
TTITLE1=CASH-MEDLEY
TTITLE2=SCHMUSE-MEDLEY
TTITLE3=HILLY BILLY-MEDLEY
EXTD=
EXTT0=
EXTT1=
EXTT2=
EXTT3=
PLAYORDER=
